<svg xmlns="http://www.w3.org/2000/svg" width="37" height="37" viewBox="0 0 37 37" fill="none">
  <path d="M19.5269 1.87012C10.3891 1.87012 2.96692 9.2923 2.96692 18.4301C2.96692 27.5679 10.3891 34.9901 19.5269 34.9901C26.6679 34.9901 31.0272 31.7051 33.2969 27.6326C35.5666 23.5601 35.8535 18.7761 35.1644 15.5051L35.0294 14.9426H34.4669L19.5269 14.9201H18.8069V22.4126H27.0419C25.7988 25.2926 23.2675 27.2726 19.5269 27.2726C14.6388 27.2726 10.6844 23.3182 10.6844 18.4301C10.6844 13.542 14.6388 9.58762 19.5269 9.58762C21.7235 9.58762 23.7175 10.4004 25.2644 11.7251L25.7819 12.1526L30.7094 7.22512L31.2269 6.68512L30.6869 6.19012C27.745 3.5098 23.8188 1.87012 19.5269 1.87012ZM19.5269 3.31012C23.1804 3.31012 26.4766 4.64605 29.0894 6.79762L25.6244 10.2626C23.9116 8.98293 21.8304 8.14762 19.5269 8.14762C13.8597 8.14762 9.24442 12.7629 9.24442 18.4301C9.24442 24.0973 13.8597 28.7126 19.5269 28.7126C24.2435 28.7126 27.6354 25.8214 28.8419 21.8951L29.1344 20.9726H20.2469V16.3601L33.8144 16.3826C34.2925 19.2879 33.9747 23.4589 32.0369 26.9351C29.9782 30.6251 26.2375 33.5501 19.5269 33.5501C11.1654 33.5501 4.40692 26.7889 4.40692 18.4301C4.40692 10.0714 11.1654 3.31012 19.5269 3.31012Z" fill="white"/>
</svg>