<svg xmlns="http://www.w3.org/2000/svg" width="21" height="21" viewBox="0 0 21 21" fill="none">
  <path d="M7.57745 0.998169C3.43057 0.998169 0.0526123 4.37606 0.0526123 8.52284C0.0526123 12.6696 3.43057 16.0475 7.57745 16.0475C9.37266 16.0475 11.0223 15.4131 12.3176 14.3587L17.6043 20.9811C17.6043 20.9811 18.7622 21.1532 19.4812 20.404C20.2051 19.6491 20.0353 18.5509 20.0353 18.5509L13.4134 13.2629C14.4678 11.9676 15.1023 10.318 15.1023 8.52284C15.1023 4.37606 11.7243 0.998169 7.57745 0.998169ZM7.57745 2.50324C10.911 2.50324 13.5972 5.18933 13.5972 8.52284C13.5972 11.8563 10.911 14.5424 7.57745 14.5424C4.24386 14.5424 1.55772 11.8563 1.55772 8.52284C1.55772 5.18933 4.24386 2.50324 7.57745 2.50324Z" fill="white"/>
</svg>